<?xml version="1.0" standalone="no"?><!DOCTYPE svg PUBLIC "-//W3C//DTD SVG 1.1//EN" "http://www.w3.org/Graphics/SVG/1.1/DTD/svg11.dtd"><svg t="1740040578791" class="icon" viewBox="0 0 1024 1024" version="1.1" xmlns="http://www.w3.org/2000/svg" p-id="2874" xmlns:xlink="http://www.w3.org/1999/xlink" width="200" height="200"><path d="M670.6176 556.9536a26.0096 26.0096 0 0 0-30.72 11.5712L512 789.504 384.4096 568.5248a26.0096 26.0096 0 0 0-30.72-11.5712A483.9424 483.9424 0 0 0 32.0512 962.56a26.0096 26.0096 0 0 0 25.8048 28.672h908.288a26.0096 26.0096 0 0 0 25.8048-28.672 483.9424 483.9424 0 0 0-321.3312-405.6064zM87.6544 938.8032a432.2304 432.2304 0 0 1 262.7584-325.2224L489.472 854.4256a27.0336 27.0336 0 0 0 44.9536 0l139.1616-240.8448a432.2304 432.2304 0 0 1 262.7584 325.2224z" fill="#007A3E" p-id="2875"></path><path d="M768 695.0912a73.6256 73.6256 0 0 0-100.5568 26.9312L611.2256 819.2a73.6256 73.6256 0 0 0 63.5904 110.8992 74.4448 74.4448 0 0 0 19.1488-2.56 73.216 73.216 0 0 0 44.6464-34.304l56.4224-97.6896A73.6256 73.6256 0 0 0 768 695.0912zM731.3408 737.28a21.6064 21.6064 0 0 1 18.7392 32.4608l-17.3056 30.0032L696.32 776.9088 712.6016 747.52a21.7088 21.7088 0 0 1 18.7392-10.24z m-37.6832 130.048a21.6064 21.6064 0 1 1-37.4784-21.6064l13.7216-23.7568L706.56 844.5952zM512 581.7344a282.5216 282.5216 0 0 0 283.7504-280.576v-11.1616-12.1856a313.5488 313.5488 0 0 0-96.8704-228.352 26.0096 26.0096 0 0 0-14.9504-6.8608 1571.0208 1571.0208 0 0 0-343.9616 0 26.0096 26.0096 0 0 0-14.9504 6.8608 313.5488 313.5488 0 0 0-96.8704 228.352V301.1584A282.5216 282.5216 0 0 0 512 581.7344z m231.5264-290.7136C737.28 423.8336 635.8016 529.8176 512 529.8176S286.72 423.8336 280.4736 291.0208c0-4.8128 0.6144-9.6256 1.2288-14.6432a1656.0128 1656.0128 0 0 1 460.8 0c0.4096 5.0176 0.8192 10.3424 1.024 14.6432z m-389.12-197.632a1520.0256 1520.0256 0 0 1 314.9824 0 258.1504 258.1504 0 0 1 68.8128 130.048 1710.6944 1710.6944 0 0 0-452.608 0 258.1504 258.1504 0 0 1 68.9152-130.048z" fill="#007A3E" p-id="2876"></path><path d="M482.304 166.1952h10.24v10.9568a20.48 20.48 0 1 0 39.2192 0v-10.9568h10.24a21.7088 21.7088 0 0 0 23.7568-18.8416 21.7088 21.7088 0 0 0-23.7568-18.8416h-10.24V117.76a20.48 20.48 0 1 0-39.2192 0v10.8544h-10.24a21.7088 21.7088 0 0 0-23.7568 18.8416 21.7088 21.7088 0 0 0 23.7568 18.7392z" fill="#007A3E" p-id="2877"></path></svg>