<?xml version="1.0" standalone="no"?><!DOCTYPE svg PUBLIC "-//W3C//DTD SVG 1.1//EN" "http://www.w3.org/Graphics/SVG/1.1/DTD/svg11.dtd"><svg t="1740040746372" class="icon" viewBox="0 0 1024 1024" version="1.1" xmlns="http://www.w3.org/2000/svg" p-id="3910" xmlns:xlink="http://www.w3.org/1999/xlink" width="200" height="200"><path d="M695.771429 395.702857L508.342857 583.131429c-18.651429 18.651429-49.005714 18.651429-67.84 0L321.828571 464.457143c-12.982857-12.982857-12.982857-34.194286 0-47.177143 12.982857-12.982857 34.194286-12.982857 47.177143 0l99.108572 99.108571c3.474286 3.474286 8.96 3.474286 12.251428 0l168.045715-168.045714c12.982857-12.982857 34.194286-12.982857 47.177142 0 13.165714 13.165714 13.165714 34.194286 0.182858 47.36z" p-id="3911" fill="#007A3E"></path><path d="M509.988571 120.137143c9.142857 0 18.468571 1.462857 27.245715 4.205714l260.754285 83.748572c17.188571 5.485714 28.891429 21.577143 28.891429 39.497142V641.828571c0 13.531429-6.582857 26.148571-17.554286 34.011429L509.988571 886.308571 210.834286 675.84c-10.971429-7.862857-17.554286-20.48-17.554286-34.011429V247.771429c0-18.102857 11.702857-34.011429 28.891429-39.497143L482.742857 124.525714c8.777143-2.925714 18.102857-4.388571 27.245714-4.388571m0-78.262857c-17.371429 0-34.742857 2.742857-51.2 8.045714L198.034286 133.668571c-49.737143 15.908571-83.2 61.805714-83.2 114.102858V641.828571c0 38.948571 19.017143 75.52 50.834285 98.011429l299.337143 210.651429 44.982857 31.634285 44.982858-31.634285 299.337142-210.651429c31.817143-22.491429 50.834286-59.062857 50.834286-98.011429V247.771429c0-52.297143-33.462857-98.011429-83.2-114.102858L561.188571 49.92c-16.457143-5.302857-33.828571-8.045714-51.2-8.045714z" p-id="3912" fill="#007A3E"></path></svg>